# AST/ASF file generated using VICON BodyLanguage
# -----------------------------------------------
:version 1.10
:name VICON
:units
  mass 1.0
  length 0.45
  angle deg
:documentation
   .ast/.asf automatically generated from VICON data using
   VICON BodyBuilder and BodyLanguage model FoxedUp or BRILLIANT.MOD
:root
   order TX TY TZ RX RY RZ
   axis XYZ
   position 0 0 0  
   orientation 0 0 0 
:bonedata
  begin
     id 1 
     name lhipjoint
     direction 0.558404 -0.748506 0.357664 
     length 2.4234 
     axis 0 0 0  XYZ
  end
  begin
     id 2 
     name lfemur
     direction 0.34202 -0.939693 0  
     length 7.14567  
     axis 0 0 20  XYZ
    dof rx ry rz
    limits (-160.0 20.0)
           (-70.0 70.0)
           (-60.0 70.0)
  end
  begin
     id 3 
     name ltibia
     direction 0.34202 -0.939693 0   
     length 8.13956   
     axis 0 0 20   XYZ
    dof rx
    limits (-10.0 170.0)
  end
  begin
     id 4 
     name lfoot
     direction 0.0791314 -0.217412 0.972867   
     length 2.00134   
     axis -90 7.62852e-016 20   XYZ
    dof rx rz
    limits (-45.0 90.0)
           (-70.0 20.0)
  end
  begin
     id 5 
     name ltoes
     direction 1.53547e-011 -4.21922e-011 1   
     length 1.00735   
     axis -90 7.62852e-016 20   XYZ
    dof rx
    limits (-90.0 20.0)
  end
  begin
     id 6 
     name rhipjoint
     direction -0.496392 -0.78327 0.374276   
     length 2.31584  
     axis 0 0 0  XYZ 
  end
  begin
     id 7 
     name rfemur
     direction -0.34202 -0.939693 0   
     length 7.47417   
     axis 0 0 -20   XYZ
    dof rx ry rz
    limits (-160.0 20.0)
           (-70.0 70.0)
           (-70.0 60.0)
  end
  begin
     id 8 
     name rtibia
     direction -0.34202 -0.939693 0   
     length 7.69071   
     axis 0 0 -20   XYZ
    dof rx
    limits (-10.0 170.0)
 end
 begin
     id 9 
     name rfoot
     direction -0.103069 -0.28318 0.953512   
     length 2.16135  
     axis -90 -7.62852e-016 -20   XYZ
    dof rx rz
    limits (-45.0 90.0)
           (-20.0 70.0)
  end
  begin
     id 10 
     name rtoes
     direction -1.53581e-011 -4.21904e-011 1   
     length 1.07867   
     axis -90 -7.62852e-016 -20   XYZ
    dof rx
    limits (-90.0 20.0)
  end
  begin
     id 11 
     name lowerback
     direction -0.0258961 0.994776 -0.0987407   
     length 2.19412   
     axis 0 0 0   XYZ
    dof rx ry rz
    limits (-20.0 45.0)
           (-30.0 30.0)
           (-30.0 30.0)
  end
  begin
     id 12 
     name upperback
     direction 0.0402454 0.999185 0.00320666   
     length 2.18445   
     axis 0 0 0   XYZ
    dof rx ry rz
    limits (-20.0 45.0)
           (-30.0 30.0)
           (-30.0 30.0)
  end
  begin
     id 13 
     name thorax
     direction 0.0519376 0.997415 0.0496558   
     length 2.21487   
     axis 0 0 0   XYZ
    dof rx ry rz
    limits (-20.0 45.0)
           (-30.0 30.0)
           (-30.0 30.0)
  end
  begin
     id 14 
     name lowerneck
     direction -0.0921276 0.983211 0.157506   
     length 1.61201   
     axis 0 0 0   XYZ
    dof rx ry rz
    limits (-20.0 45.0)
           (-30.0 30.0)
           (-30.0 30.0)
  end
  begin
     id 15 
     name upperneck
     direction 0.0820814 0.98162 -0.172292   
     length 1.65275   
     axis 0 0 0   XYZ
    dof rx ry rz
    limits (-20.0 45.0)
           (-30.0 30.0)
           (-30.0 30.0)
  end
  begin
     id 16
     name head
     direction 0.0336554 0.996413 -0.0776455  
     length 1.66415  
     axis 0 0 0   XYZ
    dof rx ry rz
    limits (-20.0 45.0)
           (-30.0 30.0)
           (-30.0 30.0)
  end
  begin
     id 17 
     name lclavicle
     direction 0.94696 0.284418 -0.149576  
     length 3.41447  
     axis 0 0 0   XYZ
    dof ry rz
    limits (-20.0 10.0)
           (0.0 20.0)
  end
  begin
     id 18 
     name lhumerus
     direction 1 -0.000130264 -9.81312e-005   
     length 5.19964   
     axis 180 -30 -90   XYZ
    dof rx ry rz
    limits (-60.0 90.0)
           (-90.0 90.0)
           (-90.0 90.0)
  end
  begin
     id 19
     name lradius
     direction 1 -4.48961e-011 1.43854e-026   
     length 3.32189   
     axis 180 -30 -90   XYZ
    dof rx
    limits (-10.0 170.0)
  end
  begin
     id 20
     name lwrist
     direction 1 -4.48958e-011 3.1502e-026   
     length 1.66095   
     axis -1.97692e-014 90 90   XYZ
    dof ry
    limits (-180.0 0.0)
 end
  begin
     id 21 
     name lhand
     direction 1 -4.48927e-011 6.3004e-026   
     length 0.645616   
     axis -4.02019e-014 90 90   XYZ
    dof rx rz
    limits (-90.0 90.0)
           (-45.0 45.0)
  end
  begin
     id 22 
     name lfingers
     direction 1 -4.4904e-011 1.26008e-025   
     length 0.520512   
     axis -8.04039e-014 90 90   XYZ
    dof rx
    limits (0.0 90.0)
  end
  begin
     id 23
     name lthumb
     direction 0.707107 -6.34947e-011 0.707107   
     length 0.747354   
     axis -90 45 2.85299e-015   XYZ
    dof rx rz
    limits (-45.0 45.0)
           (-45.0 45.0)
  end
  begin
     id 24 
     name rclavicle
     direction -0.909391 0.383475 -0.161107   
     length 3.25176  
     axis 0 0 0   XYZ 
    dof ry rz
    limits (-10.0 20.0)
           (-20.0 0.0)
  end
  begin
     id 25 
     name rhumerus
     direction -1 -4.48965e-011 -1.81384e-027  
     length 5.6595   
     axis 180 30 90   XYZ
    dof rx ry rz
    limits (-90.0 60.0)
           (-90.0 90.0)
           (-90.0 90.0)
  end
  begin
     id 26 
     name rradius
     direction -1 -4.48996e-011 -8.09397e-027   
     length 3.37604   
     axis 180 30 90   XYZ
    dof rx
    limits (-10.0 170.0)
  end
  begin
     id 27 
     name rwrist
     direction -1 -4.48927e-011 -1.56669e-026   
     length 1.68802   
     axis 1.21142e-014 -90 -90   XYZ
    dof ry
    limits (-180.0 0.0)
  end
  begin
     id 28
     name rhand
     direction -1 -4.48912e-011 -3.13339e-026   
     length 0.824702   
     axis 1.99937e-014 -90 -90   XYZ
    dof rx rz
    limits (-90.0 90.0)
           (-45.0 45.0)
  end
  begin
     id 29
     name rfingers
     direction -1 -4.49011e-011 -6.26677e-026   
     length 0.664896   
     axis 3.99874e-014 -90 -90   XYZ
    dof rx
    limits (0.0 90.0)
  end
  begin
     id 30
     name rthumb
     direction -0.707107 -6.34931e-011 0.707107   
     length 0.954662   
     axis -90 -45 -2.85299e-015   XYZ
    dof rx rz
    limits (-45.0 45.0)
           (-45.0 45.0)
  end
:hierarchy
  begin
    root lhipjoint rhipjoint lowerback
    lhipjoint lfemur
    lfemur ltibia
    ltibia lfoot
    lfoot ltoes
    rhipjoint rfemur
    rfemur rtibia
    rtibia rfoot
    rfoot rtoes
    lowerback upperback
    upperback thorax
    thorax lowerneck lclavicle rclavicle
    lowerneck upperneck
    upperneck head
    lclavicle lhumerus
    lhumerus lradius
    lradius lwrist
    lwrist lhand lthumb
    lhand lfingers
    rclavicle rhumerus
    rhumerus rradius
    rradius rwrist
    rwrist rhand rthumb
    rhand rfingers
  end

#!OML:ASF F:\VICON\USERDATA\INSTALL\rory3\rory3.ASF
:FULLY-SPECIFIED
:DEGREES
251
root 10.753 17.8924 -37.5695 19.9275 -46.8224 -11.94
lowerback 9.02713 -1.0224 -1.21895
upperback 1.07453 -1.34877 4.20136
thorax -3.81685 -0.644112 5.24343
lowerneck -14.8228 2.61781 -10.3385
upperneck 21.9778 4.39306 7.18594
head 8.90438 1.93733 4.70541
rclavicle -5.12864e-014 -9.93923e-015
rhumerus -36.0524 -16.9413 -68.2178
rradius 34.5621
rwrist -15.8964
rhand -11.9742 16.724
rfingers 7.12502
rthumb 14.0819 -12.7789
lclavicle -5.12864e-014 -9.93923e-015
lhumerus -25.0955 20.4658 77.6521
lradius 33.4692
lwrist -2.5258
lhand -4.38233 31.2195
lfingers 7.12502
lthumb 21.3868 60.0592
rfemur -19.1678 2.11427 26.5612
rtibia 43.2773
rfoot -19.8226 -0.353263
rtoes -4.15569
lfemur -35.7041 10.3444 -11.8736
ltibia 68.6967
lfoot -8.23829 -4.5829
ltoes -8.16426
252
root 10.7026 17.9086 -37.4438 20.1838 -47.2052 -12.4773
lowerback 9.04643 -0.830461 -0.706571
upperback 1.22273 -1.05042 4.1874
thorax -3.71212 -0.508371 4.89748
lowerneck -15.364 2.54728 -9.88262
upperneck 22.5039 4.31529 6.81778
head 9.21787 1.88506 4.53284
rclavicle -4.86029e-014 -3.53837e-014
rhumerus -35.7823 -18.1228 -67.8379
rradius 34.3624
rwrist -15.3261
rhand -11.6228 17.2004
rfingers 7.12502
rthumb 14.4205 -12.2786
lclavicle -4.86029e-014 -3.53837e-014
lhumerus -24.9838 20.2666 77.7544
lradius 33.2816
lwrist -2.31744
lhand -4.44347 31.1096
lfingers 7.12502
lthumb 21.328 59.9559
rfemur -18.462 2.59836 26.5871
rtibia 42.9888
rfoot -19.7135 -0.270966
rtoes -5.11304
lfemur -35.7311 10.0503 -11.4523
ltibia 67.8168
lfoot -9.33454 -4.61105
ltoes -7.11623
253
root 10.6706 17.9148 -37.3764 20.2713 -46.6213 -12.1901
lowerback 9.22073 -1.018 -0.711939
upperback 1.05277 -1.289 4.24431
thorax -3.96385 -0.619647 4.99928
lowerneck -14.9362 2.55623 -9.96131
upperneck 22.2613 4.30266 6.82396
head 9.0533 1.87688 4.52329
rclavicle -2.79789e-014 -2.74323e-014
rhumerus -35.7494 -17.6708 -68.0442
rradius 34.9558
rwrist -16.0623
rhand -11.9545 17.014
rfingers 7.12502
rthumb 14.1008 -12.4876
lclavicle -2.79789e-014 -2.74323e-014
lhumerus -25.1466 20.3016 77.6821
lradius 33.6131
lwrist -2.10482
lhand -4.09162 31.6391
lfingers 7.12502
lthumb 21.666 60.4468
rfemur -18.4077 2.53364 26.5088
rtibia 42.7366
rfoot -19.5639 -0.601767
rtoes -3.85834
lfemur -36.7272 9.19782 -11.2811
ltibia 66.8911
lfoot -10.2347 -5.15057
ltoes -8.00638
254
root 10.6327 17.9251 -37.2882 20.196 -46.5099 -11.7128
lowerback 9.18652 -1.10465 -0.985577
upperback 0.968604 -1.42758 4.26812
thorax -4.01269 -0.681363 5.1988
lowerneck -13.6629 2.59301 -10.9048
upperneck 21.1963 4.3219 7.41904
head 8.41117 1.89622 4.80374
rclavicle 1.76918e-014 -1.47101e-014
rhumerus -35.4249 -18.112 -67.7184
rradius 34.9677
rwrist -15.6278
rhand -11.8746 17.0956
rfingers 7.12502
rthumb 14.1779 -12.4006
lclavicle 1.76918e-014 -1.47101e-014
lhumerus -24.8599 20.061 77.7104
lradius 33.332
lwrist -1.43876
lhand -3.84289 32.2479
lfingers 7.12502
lthumb 21.9048 61.0279
rfemur -18.2719 2.31482 26.0011
rtibia 42.5259
rfoot -19.4277 -0.397867
rtoes -3.3458
lfemur -37.331 8.32919 -11.4858
ltibia 65.6756
lfoot -11.4273 -4.98499
ltoes -9.93069
255
root 10.5913 17.9375 -37.1873 20.9349 -46.888 -12.3826
lowerback 9.07409 -0.939935 -0.755052
upperback 1.03495 -1.1859 4.42877
thorax -3.90536 -0.568402 5.2028
lowerneck -15.5458 2.59754 -9.84844
upperneck 22.7423 4.44767 6.58093
head 9.33179 1.91561 4.47387
rclavicle 1.82385e-014 1.66979e-014
rhumerus -35.0966 -17.4448 -67.9031
rradius 35.5579
rwrist -16.3562
rhand -11.7367 16.8644
rfingers 7.12502
rthumb 14.3107 -12.6225
lclavicle 1.82385e-014 1.66979e-014
lhumerus -25.2132 20.7335 77.8864
lradius 33.7898
lwrist -1.81005
lhand -3.31614 32.3632
lfingers 7.12502
lthumb 22.4105 61.0832
rfemur -18.2257 2.95225 26.1967
rtibia 42.5462
rfoot -19.2091 -0.487906
rtoes -4.56577
lfemur -37.7966 7.90682 -10.8982
ltibia 64.4384
lfoot -12.4323 -4.57869
ltoes -11.2793
256
root 10.5493 17.9473 -37.0921 20.9653 -47.111 -11.9597
lowerback 8.8516 -0.795422 -1.04443
upperback 1.10795 -1.03089 4.26704
thorax -3.7174 -0.491043 5.16951
lowerneck -15.3454 2.3941 -10.2034
upperneck 22.412 4.14061 6.99923
head 9.18678 1.79994 4.627
rclavicle -1.36615e-013 4.11484e-014
rhumerus -34.9829 -16.6823 -68.4431
rradius 36.5172
rwrist -17.4034
rhand -11.7613 16.6166
rfingers 7.12502
rthumb 14.287 -12.8719
lclavicle -1.36615e-013 4.11484e-014
lhumerus -24.9391 20.7541 77.9563
lradius 33.8473
lwrist -1.94807
lhand -2.9019 32.1912
lfingers 7.12502
lthumb 22.8081 60.8627
rfemur -18.2896 3.0456 25.5858
rtibia 42.5734
rfoot -19.0648 -0.449989
rtoes -6.61953
lfemur -38.3363 7.21929 -11.1471
ltibia 62.9358
lfoot -13.1546 -4.15591
ltoes -14.0186
257
root 10.5166 17.892 -36.9939 21.0639 -46.9271 -12.0394
lowerback 8.99402 -0.797349 -0.77302
upperback 1.12423 -1.00654 4.26563
thorax -3.78701 -0.482273 5.01381
lowerneck -15.3238 2.38938 -9.99771
upperneck 22.4275 4.11083 6.86156
head 9.19999 1.78702 4.54153
rclavicle 7.43952e-014 -1.49089e-014
rhumerus -34.9456 -16.4225 -68.6204
rradius 37.0934
rwrist -17.6461
rhand -12.0779 16.5887
rfingers 7.12502
rthumb 13.9819 -12.9212
lclavicle 7.43952e-014 -1.49089e-014
lhumerus -24.8129 20.6627 78.05
lradius 33.7725
lwrist -1.63167
lhand -3.04143 32.2322
lfingers 7.12502
lthumb 22.6742 60.9202
rfemur -18.3008 3.1281 25.5075
rtibia 43.1568
rfoot -19.2816 -0.634555
rtoes -8.18752
lfemur -38.7303 6.98497 -10.8997
ltibia 61.2941
lfoot -13.7972 -4.18656
ltoes -12.3421
258
root 10.4747 17.8978 -36.8879 21.2383 -46.9198 -11.9624
lowerback 9.05352 -0.828581 -0.79511
upperback 1.03412 -1.04407 4.32335
thorax -3.90936 -0.49692 5.09608
lowerneck -15.1242 2.39623 -10.2511
upperneck 22.3819 4.14359 6.94098
head 9.13588 1.78907 4.60674
rclavicle 4.30369e-014 5.07895e-014
rhumerus -34.7781 -15.9808 -68.6943
rradius 37.4982
rwrist -17.832
rhand -12.3297 16.628
rfingers 7.12502
rthumb 13.7392 -12.8984
lclavicle 4.30369e-014 5.07895e-014
lhumerus -24.981 20.8369 78.0738
lradius 33.8906
lwrist -1.63957
lhand -2.93063 32.5874
lfingers 7.12502
lthumb 22.7805 61.2623
rfemur -18.4011 3.29345 25.2471
rtibia 43.6392
rfoot -19.5098 -0.671237
rtoes -8.26558
lfemur -38.8093 5.67288 -10.5916
ltibia 59.0816
lfoot -14.3373 -3.68025
ltoes -9.23662
259
root 10.4598 17.7813 -36.7949 21.3 -46.8022 -11.6358
lowerback 9.01986 -0.886451 -0.919405
upperback 0.945851 -1.12964 4.327
thorax -3.97219 -0.534519 5.18242
lowerneck -15.115 2.36715 -10.3632
upperneck 22.5527 4.11752 6.97306
head 9.19264 1.76441 4.64058
rclavicle -3.93097e-014 2.92213e-014
rhumerus -34.6507 -15.4241 -68.8306
rradius 38.0402
rwrist -18.2757
rhand -12.2622 16.6246
rfingers 7.12502
rthumb 13.8044 -12.8974
lclavicle -3.93097e-014 2.92213e-014
lhumerus -24.8704 20.5703 78.0914
lradius 33.7736
lwrist -1.71166
lhand -2.75713 32.7509
lfingers 7.12502
lthumb 22.947 61.4052
rfemur -18.9039 3.27346 24.815
rtibia 44.5075
rfoot -19.8622 -0.814824
rtoes -9.73286
lfemur -37.8162 2.13244 -8.64649
ltibia 56.5126
lfoot -17.3345 -9.44635
ltoes 10.6897
260
root 10.4171 17.7739 -36.6809 21.2521 -46.7994 -11.4395
lowerback 9.05146 -0.830665 -0.886306
upperback 0.9736 -1.05481 4.24964
thorax -3.97004 -0.498414 5.07267
lowerneck -15.1214 2.45419 -9.965
upperneck 22.599 4.18258 6.7801
head 9.21806 1.80529 4.51573
rclavicle 4.17448e-014 3.22031e-014
rhumerus -34.6236 -15.1062 -68.9606
rradius 38.6665
rwrist -18.666
rhand -12.3772 16.4949
rfingers 7.12502
rthumb 13.6935 -13.0346
lclavicle 4.17448e-014 3.22031e-014
lhumerus -24.5096 20.1056 78.1969
lradius 33.429
lwrist -1.40891
lhand -3.27011 32.3733
lfingers 7.12502
lthumb 22.4547 61.0879
rfemur -18.6836 3.24647 24.4751
rtibia 44.712
rfoot -19.9938 -0.950587
rtoes -11.926
lfemur -37.8427 1.7889 -8.69124
ltibia 54.3827
lfoot -17.5706 -8.94389
ltoes 6.7354
261
root 10.372 17.7534 -36.5676 21.442 -46.9914 -11.6017
lowerback 9.06762 -0.74745 -0.770623
upperback 1.05171 -0.936639 4.2232
thorax -3.91091 -0.444122 4.96289
lowerneck -14.1865 2.0753 -11.5118
upperneck 21.5053 3.67403 7.99516
head 8.65101 1.60008 5.07245
rclavicle -2.27608e-014 1.44119e-014
rhumerus -34.4115 -15.1744 -69.0206
rradius 39.0478
rwrist -18.5701
rhand -12.1328 16.6123
rfingers 7.12502
rthumb 13.929 -12.9012
lclavicle -2.27608e-014 1.44119e-014
lhumerus -24.277 20.3218 78.1589
lradius 33.2466
lwrist -1.439
lhand -3.48301 32.0838
lfingers 7.12502
lthumb 22.2503 60.8229
rfemur -18.3861 3.4198 24.3302
rtibia 44.7818
rfoot -20.046 -1.09202
rtoes -13.0749
lfemur -37.9371 2.24072 -8.67666
ltibia 52.5657
lfoot -17.9845 -8.82119
ltoes 1.20333
262
root 10.3226 17.7946 -36.4637 21.7708 -46.9454 -11.6277
lowerback 8.99046 -0.72564 -0.735983
upperback 1.04551 -0.905477 4.20328
thorax -3.87797 -0.429543 4.91619
lowerneck -15.4054 2.33297 -9.81487
upperneck 22.6305 3.99754 6.81749
head 9.30192 1.73811 4.49441
rclavicle 1.09083e-013 -5.52621e-014
rhumerus -34.1595 -15.4856 -69.1037
rradius 39.3902
rwrist -18.3859
rhand -11.5845 16.8214
rfingers 7.12502
rthumb 14.4574 -12.655
lclavicle 1.09083e-013 -5.52621e-014
lhumerus -23.9851 20.3882 78.1127
lradius 33.1322
lwrist -1.70409
lhand -2.97771 32.3575
lfingers 7.12502
lthumb 22.7354 61.038
rfemur -18.0157 3.54929 24.2421
rtibia 44.1162
rfoot -19.6716 -1.45728
rtoes -14.2073
lfemur -38.3325 1.15886 -8.60956
ltibia 51.1603
lfoot -18.5971 -5.94458
ltoes -7.66812
